<?xml version="1.0" encoding="UTF-8" standalone="no"?>
<!-- Generator: Adobe Illustrator 9.0, SVG Export Plug-In  -->

<!-- This set of SVG files is a complete cards game with figures, numbers	-->

<!--    and backs of cards completely designed in SVG.				-->

<!--    									-->

<!--    Copyright (C) 2004 David Bellot						-->

<!--										-->

<!--    This library is free software; you can redistribute it and/or		-->

<!--    modify it under the terms of the GNU Lesser General Public		-->

<!--    License as published by the Free Software Foundation; either		-->

<!--    version 2 of the License, or (at your option) any later version		-->

<!--										-->

<!--    This library is distributed in the hope that it will be useful,		-->

<!--    but WITHOUT ANY WARRANTY; without even the implied warranty of		-->

<!--    MERCHANTABILITY or FITNESS FOR A PARTICULAR PURPOSE.  See the GNU	-->

<!--    Lesser General Public License for more details.				-->

<!--										-->

<!--    You should have received a copy of the GNU Lesser General Public	-->

<!--    License along with this library; if not, write to the Free Software	-->

<!--    Foundation, Inc., 59 Temple Place, Suite 330, Boston, MA 02111-1307  USA-->

<!--										-->

<!--    Contact the author David Bellot at bellot@stat.berkeley.edu or 		-->

<!--    david.bellot@free.fr or yimyom@users.sourceforge.net			-->

<svg
   width="233.02446"
   height="323.03461"
   viewBox="0 0 186.40127 258.92055"
   xml:space="preserve"
   id="svg2"
   sodipodi:version="0.32"
   inkscape:version="1.2.2 (732a01da63, 2022-12-09)"
   sodipodi:docname="Card_back_06.svg"
   inkscape:output_extension="org.inkscape.output.svg.inkscape"
   version="1.0"
   xmlns:inkscape="http://www.inkscape.org/namespaces/inkscape"
   xmlns:sodipodi="http://sodipodi.sourceforge.net/DTD/sodipodi-0.dtd"
   xmlns="http://www.w3.org/2000/svg"
   xmlns:svg="http://www.w3.org/2000/svg"
   xmlns:rdf="http://www.w3.org/1999/02/22-rdf-syntax-ns#"
   xmlns:cc="http://creativecommons.org/ns#"
   xmlns:dc="http://purl.org/dc/elements/1.1/"><metadata
   id="metadata448"><rdf:RDF><cc:Work
       rdf:about=""><dc:format>image/svg+xml</dc:format><dc:type
         rdf:resource="http://purl.org/dc/dcmitype/StillImage" /></cc:Work></rdf:RDF></metadata><defs
   id="defs446" /><sodipodi:namedview
   inkscape:window-height="1003"
   inkscape:window-width="1280"
   inkscape:pageshadow="2"
   inkscape:pageopacity="0.0"
   guidetolerance="10.0"
   gridtolerance="10.0"
   objecttolerance="10.0"
   borderopacity="1.0"
   bordercolor="#666666"
   pagecolor="#ffffff"
   id="base"
   inkscape:showpageshadow="false"
   width="209px"
   height="303px"
   inkscape:zoom="1.7562495"
   inkscape:cx="-11.103206"
   inkscape:cy="202.13529"
   inkscape:window-x="0"
   inkscape:window-y="0"
   inkscape:current-layer="svg2"
   inkscape:pagecheckerboard="0"
   inkscape:deskcolor="#d1d1d1"
   showgrid="false"
   inkscape:window-maximized="0" />
	<g
   id="Layer_x0020_1-8"
   style="fill:none;fill-rule:nonzero;stroke:#17067a;stroke-width:1.3176;stroke-linecap:round;stroke-linejoin:round;stroke-miterlimit:4"
   transform="matrix(1.1171826,0,0,1.0661188,-0.16739149,2.4201354e-4)">
		<path
   style="fill:#ffffff;stroke:#000000;stroke-width:0.500454;stroke-linecap:butt;stroke-linejoin:miter"
   d="m 166.93359,235.74316 c 0,3.77442 -3.08593,6.86914 -6.87011,6.86914 H 7.215332 c -3.7749023,0 -6.8608398,-3.09472 -6.8608398,-6.86914 V 7.3178711 c 0,-3.7797852 3.0859375,-6.8701172 6.8608398,-6.8701172 H 160.06348 c 3.78418,0 6.87011,3.090332 6.87011,6.8701172 z"
   id="path5-0" />
		<path
   style="fill:#ffffff;fill-rule:evenodd;stroke:none"
   d="m 7.6469727,1.8691406 c -3.2133789,0 -5.8012695,2.5161133 -5.8012695,5.6430664 V 235.43555 c 0,3.12597 2.5878906,5.6416 5.8012695,5.6416 H 159.7207 c 3.21485,0 5.80078,-2.51563 5.80078,-5.6416 V 7.512207 c 0,-3.1269531 -2.58593,-5.6430664 -5.80078,-5.6430664 z"
   id="path7-0" />
		<path
   style="stroke-width:2.85159;stroke-linecap:butt;stroke-linejoin:miter;stroke-miterlimit:10"
   d="m 7.6469727,1.8691406 c -3.2133789,0 -5.8012695,2.5161133 -5.8012695,5.6430664 V 235.43555 c 0,3.12597 2.5878906,5.6416 5.8012695,5.6416 H 159.7207 c 3.21485,0 5.80078,-2.51563 5.80078,-5.6416 V 7.512207 c 0,-3.1269531 -2.58593,-5.6430664 -5.80078,-5.6430664 z"
   id="path9-5" />
		<path
   style="fill:#ffffff;fill-rule:evenodd;stroke:none"
   d="m 9.2890625,7.4052734 c -0.8095703,0 -1.4604492,0.6337891 -1.4604492,1.4204102 V 234.12207 c 0,0.78613 0.6508789,1.41992 1.4604492,1.41992 H 157.70898 c 0.80957,0 1.46192,-0.63379 1.46192,-1.41992 V 8.8256836 c 0,-0.7866211 -0.65235,-1.4204102 -1.46192,-1.4204102 z"
   id="path11-9" />
		<path
   style="stroke-width:2.67783;stroke-linecap:butt;stroke-linejoin:miter;stroke-miterlimit:10"
   d="m 9.2890625,7.4052734 c -0.8095703,0 -1.4604492,0.6337891 -1.4604492,1.4204102 V 234.12207 c 0,0.78613 0.6508789,1.41992 1.4604492,1.41992 H 157.70898 c 0.80957,0 1.46192,-0.63379 1.46192,-1.41992 V 8.8256836 c 0,-0.7866211 -0.65235,-1.4204102 -1.46192,-1.4204102 z"
   id="path13-3" />
		<path
   style="fill:#313390;fill-rule:evenodd;stroke:none"
   d="m 38.657227,37.113769 c -0.390137,0 -0.704102,0.304688 -0.704102,0.685059 V 205.86816 c 0,0.38086 0.313965,0.68555 0.704102,0.68555 H 126.8584 c 0.3916,0 0.7041,-0.30469 0.7041,-0.68555 V 37.798828 c 0,-0.380371 -0.3125,-0.685058 -0.7041,-0.685058 H 38.657227 Z"
   id="path15-1" />
		<path
   style="stroke-width:1.64237;stroke-linecap:butt;stroke-linejoin:miter;stroke-miterlimit:10"
   d="m 38.657227,37.113769 c -0.390137,0 -0.704102,0.304688 -0.704102,0.685059 V 205.86816 c 0,0.38086 0.313965,0.68555 0.704102,0.68555 H 126.8584 c 0.3916,0 0.7041,-0.30469 0.7041,-0.68555 V 37.798828 c 0,-0.380371 -0.3125,-0.685058 -0.7041,-0.685058 H 38.657227 Z"
   id="path17-6" />
		<path
   style="fill:#ffffff;fill-rule:evenodd;stroke:none"
   d="m 52.620117,43.074219 c -4.619629,0 -8.339844,3.618652 -8.339844,8.112304 V 191.76074 c 0,4.49414 3.720215,8.11231 8.339844,8.11231 h 59.907223 c 4.62012,0 8.33985,-3.61817 8.33985,-8.11231 V 51.186523 c 0,-4.493652 -3.71973,-8.112304 -8.33985,-8.112304 z"
   id="path19-3" />
		<path
   style="stroke-width:2.06528;stroke-linecap:butt;stroke-miterlimit:10"
   d="m 52.620117,43.074219 c -4.619629,0 -8.339844,3.618652 -8.339844,8.112304 V 191.76074 c 0,4.49414 3.720215,8.11231 8.339844,8.11231 h 59.907223 c 4.62012,0 8.33985,-3.61817 8.33985,-8.11231 V 51.186523 c 0,-4.493652 -3.71973,-8.112304 -8.33985,-8.112304 z"
   id="path21-9" />
		<path
   style="fill:#313390;fill-rule:evenodd;stroke:none"
   d="m 53.546875,49.536621 c -1.553711,0 -2.805176,1.217285 -2.805176,2.729004 V 190.68066 c 0,1.5127 1.251465,2.7295 2.805176,2.7295 h 57.681645 c 1.55566,0 2.80859,-1.2168 2.80859,-2.7295 V 52.265625 c 0,-1.511719 -1.25293,-2.729004 -2.80859,-2.729004 z"
   id="path23-4" />
		<path
   style="stroke-width:1.79848;stroke-linecap:butt;stroke-miterlimit:10"
   d="m 53.546875,49.536621 c -1.553711,0 -2.805176,1.217285 -2.805176,2.729004 V 190.68066 c 0,1.5127 1.251465,2.7295 2.805176,2.7295 h 57.681645 c 1.55566,0 2.80859,-1.2168 2.80859,-2.7295 V 52.265625 c 0,-1.511719 -1.25293,-2.729004 -2.80859,-2.729004 z"
   id="path25-8" />
		<path
   style="fill:#17067a;fill-rule:evenodd;stroke:none"
   d="M 9.4145508,9.0317383 H 16.077149 L 9.4785157,15.43457 9.4145509,9.0317383 Z"
   id="path27-7" />
		<path
   style="stroke-width:0.86411;stroke-linecap:butt;stroke-linejoin:miter;stroke-miterlimit:10"
   d="M 9.4145508,9.0317383 H 16.077149 L 9.4785157,15.43457 9.4145509,9.0317383 Z"
   id="path29-2" />
		<path
   style="fill:#17067a;fill-rule:evenodd;stroke:none"
   d="m 157.48242,9.1147461 h -6.66211 l 6.59766,6.4028319 0.0644,-6.4028319 z"
   id="path31-9" />
		<path
   style="stroke-width:0.86411;stroke-linecap:butt;stroke-linejoin:miter;stroke-miterlimit:10"
   d="m 157.48242,9.1147461 h -6.66211 l 6.59766,6.4028319 0.0644,-6.4028319 z"
   id="path33-2" />
		<path
   style="fill:#17067a;fill-rule:evenodd;stroke:none"
   d="m 157.60254,234.11816 h -6.66309 l 6.59961,-6.40136 0.0635,6.40136 z"
   id="path35-6" />
		<path
   style="stroke-width:0.86411;stroke-linecap:butt;stroke-linejoin:miter;stroke-miterlimit:10"
   d="m 157.60254,234.11816 h -6.66309 l 6.59961,-6.40136 0.0635,6.40136 z"
   id="path37-0" />
		<path
   style="fill:#17067a;fill-rule:evenodd;stroke:none"
   d="M 9.4091797,234.08496 H 16.071777 L 9.4741211,227.68262 Z"
   id="path39-5" />
		<path
   style="stroke-width:0.86411;stroke-linecap:butt;stroke-linejoin:miter;stroke-miterlimit:10"
   d="M 9.4091797,234.08496 H 16.071777 L 9.4741211,227.68262 Z"
   id="path41-6" />
		<path
   style="fill:#313390;fill-rule:evenodd;stroke:none"
   d="m 11.96582,130.63184 v 6.13379 L 34.394043,125.2959 v -6.28467 z"
   id="path43-8" />
		<path
   style="stroke-width:1.31753;stroke-miterlimit:10"
   d="m 11.96582,130.63184 v 6.13379 L 34.394043,125.2959 v -6.28467 z"
   id="path45-2" />
		<path
   style="fill:#313390;fill-rule:evenodd;stroke:none"
   d="m 12.080078,142.23145 v 6.13378 l 22.427735,-11.47168 v -6.2832 z"
   id="path47-4" />
		<path
   style="stroke-width:1.31753;stroke-miterlimit:10"
   d="m 12.080078,142.23145 v 6.13378 l 22.427735,-11.47168 v -6.2832 z"
   id="path49-5" />
		<path
   style="fill:#ffffff;fill-rule:evenodd;stroke:none"
   d="m 11.854492,136.7959 v -6.13379 l 22.427246,11.4707 v 6.28418 z"
   id="path51-8" />
		<path
   style="stroke-width:1.31753;stroke-miterlimit:10"
   d="m 11.854492,136.7959 v -6.13379 l 22.427246,11.4707 v 6.28418 z"
   id="path53-0" />
		<path
   style="fill:#313390;fill-rule:evenodd;stroke:none"
   d="m 12.129883,118.87305 v 6.13379 l 22.427734,-11.47217 v -6.28272 z"
   id="path55-9" />
		<path
   style="stroke-width:1.31753;stroke-miterlimit:10"
   d="m 12.129883,118.87305 v 6.13379 l 22.427734,-11.47217 v -6.28272 z"
   id="path57-0" />
		<path
   style="fill:#ffffff;fill-rule:evenodd;stroke:none"
   d="m 12.022949,125.25879 v -6.13281 l 22.428711,11.4707 v 6.28418 z"
   id="path59-9" />
		<path
   style="stroke-width:1.31753;stroke-miterlimit:10"
   d="m 12.022949,125.25879 v -6.13281 l 22.428711,11.4707 v 6.28418 z"
   id="path61-0" />
		<path
   style="fill:#313390;fill-rule:evenodd;stroke:none"
   d="m 12.016113,107.27344 v 6.13379 l 22.427735,-11.47022 v -6.284666 z"
   id="path63-6" />
		<path
   style="stroke-width:1.31753;stroke-miterlimit:10"
   d="m 12.016113,107.27344 v 6.13379 l 22.427735,-11.47022 v -6.284666 z"
   id="path65-3" />
		<path
   style="fill:#ffffff;fill-rule:evenodd;stroke:none"
   d="m 11.903809,113.43701 v -6.1333 l 22.428222,11.47168 v 6.28223 z"
   id="path67-3" />
		<path
   style="stroke-width:1.31753;stroke-miterlimit:10"
   d="m 11.903809,113.43701 v -6.1333 l 22.428222,11.47168 v 6.28223 z"
   id="path69-5" />
		<path
   style="fill:#ffffff;fill-rule:evenodd;stroke:none"
   d="m 12.073242,101.90039 v -6.1333 l 22.427735,11.47168 v 6.28271 z"
   id="path71-7" />
		<path
   style="stroke-width:1.31753;stroke-miterlimit:10"
   d="m 12.073242,101.90039 v -6.1333 l 22.427735,11.47168 v 6.28271 z"
   id="path73-0" />
		<path
   style="fill:#313390;fill-rule:evenodd;stroke:none"
   d="m 12.11084,153.93652 v 6.13282 l 22.427734,-11.46973 v -6.28418 z"
   id="path75-4" />
		<path
   style="stroke-width:1.31753;stroke-miterlimit:10"
   d="m 12.11084,153.93652 v 6.13282 l 22.427734,-11.46973 v -6.28418 z"
   id="path77-1" />
		<path
   style="fill:#ffffff;fill-rule:evenodd;stroke:none"
   d="m 11.884766,148.5 v -6.13281 l 22.427734,11.4707 v 6.28516 z"
   id="path79-2" />
		<path
   style="stroke-width:1.31753;stroke-miterlimit:10"
   d="m 11.884766,148.5 v -6.13281 l 22.427734,11.4707 v 6.28516 z"
   id="path81-7" />
		<path
   style="fill:#313390;fill-rule:evenodd;stroke:none"
   d="m 11.883301,72.185059 v 6.1333 L 34.311035,66.847168 v -6.283203 z"
   id="path83-0" />
		<path
   style="stroke-width:1.31753;stroke-miterlimit:10"
   d="m 11.883301,72.185059 v 6.1333 L 34.311035,66.847168 v -6.283203 z"
   id="path85-9" />
		<path
   style="fill:#313390;fill-rule:evenodd;stroke:none"
   d="m 11.99707,83.783203 v 6.135254 l 22.428711,-11.47168 v -6.284668 z"
   id="path87-9" />
		<path
   style="stroke-width:1.31753;stroke-miterlimit:10"
   d="m 11.99707,83.783203 v 6.135254 l 22.428711,-11.47168 v -6.284668 z"
   id="path89-9" />
		<path
   style="fill:#ffffff;fill-rule:evenodd;stroke:none"
   d="m 11.771484,78.348633 v -6.133789 l 22.428711,11.470214 v 6.284668 z"
   id="path91-1" />
		<path
   style="stroke-width:1.31753;stroke-miterlimit:10"
   d="m 11.771484,78.348633 v -6.133789 l 22.428711,11.470214 v 6.284668 z"
   id="path93-2" />
		<path
   style="fill:#313390;fill-rule:evenodd;stroke:none"
   d="M 12.047852,60.424316 V 66.55957 L 34.475586,55.087402 v -6.284179 z"
   id="path95-5" />
		<path
   style="stroke-width:1.31753;stroke-miterlimit:10"
   d="M 12.047852,60.424316 V 66.55957 L 34.475586,55.087402 v -6.284179 z"
   id="path97-4" />
		<path
   style="fill:#ffffff;fill-rule:evenodd;stroke:none"
   d="m 11.939941,66.812012 v -6.133301 l 22.428711,11.470215 v 6.284179 z"
   id="path99-8" />
		<path
   style="stroke-width:1.31753;stroke-miterlimit:10"
   d="m 11.939941,66.812012 v -6.133301 l 22.428711,11.470215 v 6.284179 z"
   id="path101-4" />
		<path
   style="fill:#313390;fill-rule:evenodd;stroke:none"
   d="m 11.933106,48.826172 v 6.133301 L 34.360352,43.488281 v -6.283203 z"
   id="path103-7" />
		<path
   style="stroke-width:1.31753;stroke-miterlimit:10"
   d="m 11.933106,48.826172 v 6.133301 L 34.360352,43.488281 v -6.283203 z"
   id="path105-8" />
		<path
   style="fill:#ffffff;fill-rule:evenodd;stroke:none"
   d="M 11.821777,54.989746 V 48.856445 L 34.25,60.326172 v 6.284668 z"
   id="path107-8" />
		<path
   style="stroke-width:1.31753;stroke-miterlimit:10"
   d="M 11.821777,54.989746 V 48.856445 L 34.25,60.326172 v 6.284668 z"
   id="path109-8" />
		<path
   style="fill:#ffffff;fill-rule:evenodd;stroke:none"
   d="m 11.989746,43.453125 v -6.132812 l 22.428711,11.469726 v 6.28418 z"
   id="path111-0" />
		<path
   style="stroke-width:1.31753;stroke-miterlimit:10"
   d="m 11.989746,43.453125 v -6.132812 l 22.428711,11.469726 v 6.28418 z"
   id="path113-0" />
		<path
   style="fill:#313390;fill-rule:evenodd;stroke:none"
   d="m 12.028809,95.489258 v 6.133302 L 34.457031,90.151367 v -6.283203 z"
   id="path115-8" />
		<path
   style="stroke-width:1.31753;stroke-miterlimit:10"
   d="m 12.028809,95.489258 v 6.133302 L 34.457031,90.151367 v -6.283203 z"
   id="path117-8" />
		<path
   style="fill:#ffffff;fill-rule:evenodd;stroke:none"
   d="m 11.802734,90.053223 v -6.133789 l 22.427735,11.471679 v 6.283207 z"
   id="path119-2" />
		<path
   style="stroke-width:1.31753;stroke-miterlimit:10"
   d="m 11.802734,90.053223 v -6.133789 l 22.427735,11.471679 v 6.283207 z"
   id="path121-5" />
		<path
   style="fill:#313390;fill-rule:evenodd;stroke:none"
   d="m 11.96582,188.91895 v 6.13476 l 22.428223,-11.47266 v -6.28515 z"
   id="path123-1" />
		<path
   style="stroke-width:1.31753;stroke-miterlimit:10"
   d="m 11.96582,188.91895 v 6.13476 l 22.428223,-11.47266 v -6.28515 z"
   id="path125-7" />
		<path
   style="fill:#313390;fill-rule:evenodd;stroke:none"
   d="m 12.080078,200.51855 v 6.13282 l 22.427735,-11.47071 v -6.2832 z"
   id="path127-9" />
		<path
   style="stroke-width:1.31753;stroke-miterlimit:10"
   d="m 12.080078,200.51855 v 6.13282 l 22.427735,-11.47071 v -6.2832 z"
   id="path129-0" />
		<path
   style="fill:#ffffff;fill-rule:evenodd;stroke:none"
   d="m 11.854492,195.08398 v -6.13574 l 22.427246,11.47168 v 6.28516 z"
   id="path131-9" />
		<path
   style="stroke-width:1.31753;stroke-miterlimit:10"
   d="m 11.854492,195.08398 v -6.13574 l 22.427246,11.47168 v 6.28516 z"
   id="path133-0" />
		<path
   style="fill:#313390;fill-rule:evenodd;stroke:none"
   d="m 12.129883,177.15918 v 6.13281 l 22.427734,-11.4707 v -6.2832 z"
   id="path135-2" />
		<path
   style="stroke-width:1.31753;stroke-miterlimit:10"
   d="m 12.129883,177.15918 v 6.13281 l 22.427734,-11.4707 v -6.2832 z"
   id="path137-3" />
		<path
   style="fill:#ffffff;fill-rule:evenodd;stroke:none"
   d="m 12.022949,183.5459 v -6.13477 l 22.428711,11.47266 v 6.28418 z"
   id="path139-9" />
		<path
   style="stroke-width:1.31753;stroke-miterlimit:10"
   d="m 12.022949,183.5459 v -6.13477 l 22.428711,11.47266 v 6.28418 z"
   id="path141-8" />
		<path
   style="fill:#313390;fill-rule:evenodd;stroke:none"
   d="m 12.016113,165.56152 v 6.13282 l 22.427735,-11.47266 v -6.28125 z"
   id="path143-3" />
		<path
   style="stroke-width:1.31753;stroke-miterlimit:10"
   d="m 12.016113,165.56152 v 6.13282 l 22.427735,-11.47266 v -6.28125 z"
   id="path145-4" />
		<path
   style="fill:#ffffff;fill-rule:evenodd;stroke:none"
   d="m 11.903809,171.72461 v -6.13379 l 22.428222,11.4707 v 6.28321 z"
   id="path147-9" />
		<path
   style="stroke-width:1.31753;stroke-miterlimit:10"
   d="m 11.903809,171.72461 v -6.13379 l 22.428222,11.4707 v 6.28321 z"
   id="path149-9" />
		<path
   style="fill:#ffffff;fill-rule:evenodd;stroke:none"
   d="m 12.073242,160.1875 v -6.13379 l 22.427735,11.4707 v 6.28418 z"
   id="path151-7" />
		<path
   style="stroke-width:1.31753;stroke-miterlimit:10"
   d="m 12.073242,160.1875 v -6.13379 l 22.427735,11.4707 v 6.28418 z"
   id="path153-5" />
		<path
   style="fill:#313390;fill-rule:evenodd;stroke:none"
   d="m 131.93848,113.32178 v -6.13623 l 22.42675,11.47802 v 6.28663 z"
   id="path155-8" />
		<path
   style="stroke-width:1.31753;stroke-miterlimit:10"
   d="m 131.93848,113.32178 v -6.13623 l 22.42675,11.47802 v 6.28663 z"
   id="path157-8" />
		<path
   style="fill:#313390;fill-rule:evenodd;stroke:none"
   d="m 132.05078,101.71582 v -6.136718 l 22.42969,11.478518 v 6.28759 z"
   id="path159-2" />
		<path
   style="stroke-width:1.31753;stroke-miterlimit:10"
   d="m 132.05078,101.71582 v -6.136718 l 22.42969,11.478518 v 6.28759 z"
   id="path161-8" />
		<path
   style="fill:#ffffff;fill-rule:evenodd;stroke:none"
   d="m 131.82617,107.15576 v 6.13623 l 22.42676,-11.47656 v -6.288086 z"
   id="path163-3" />
		<path
   style="stroke-width:1.31753;stroke-miterlimit:10"
   d="m 131.82617,107.15576 v 6.13623 l 22.42676,-11.47656 v -6.288086 z"
   id="path165-5" />
		<path
   style="fill:#313390;fill-rule:evenodd;stroke:none"
   d="m 132.09961,125.08887 v -6.1377 l 22.43066,11.47754 v 6.28906 z"
   id="path167-2" />
		<path
   style="stroke-width:1.31753;stroke-miterlimit:10"
   d="m 132.09961,125.08887 v -6.1377 l 22.43066,11.47754 v 6.28906 z"
   id="path169-0" />
		<path
   style="fill:#ffffff;fill-rule:evenodd;stroke:none"
   d="m 131.99414,118.69873 v 6.13623 l 22.42774,-11.47656 v -6.2876 z"
   id="path171-7" />
		<path
   style="stroke-width:1.31753;stroke-miterlimit:10"
   d="m 131.99414,118.69873 v 6.13623 l 22.42774,-11.47656 v -6.2876 z"
   id="path173-5" />
		<path
   style="fill:#313390;fill-rule:evenodd;stroke:none"
   d="m 131.98828,136.69434 v -6.13672 l 22.42774,11.47851 v 6.28711 z"
   id="path175-4" />
		<path
   style="stroke-width:1.31753;stroke-miterlimit:10"
   d="m 131.98828,136.69434 v -6.13672 l 22.42774,11.47851 v 6.28711 z"
   id="path177-1" />
		<path
   style="fill:#ffffff;fill-rule:evenodd;stroke:none"
   d="m 131.875,130.52832 v 6.13574 l 22.42969,-11.47558 v -6.28858 z"
   id="path179-8" />
		<path
   style="stroke-width:1.31753;stroke-miterlimit:10"
   d="m 131.875,130.52832 v 6.13574 l 22.42969,-11.47558 v -6.28858 z"
   id="path181-3" />
		<path
   style="fill:#ffffff;fill-rule:evenodd;stroke:none"
   d="m 132.04492,142.07129 v 6.13769 l 22.42774,-11.47753 v -6.28907 z"
   id="path183-3" />
		<path
   style="stroke-width:1.31753;stroke-miterlimit:10"
   d="m 132.04492,142.07129 v 6.13769 l 22.42774,-11.47753 v -6.28907 z"
   id="path185-0" />
		<path
   style="fill:#313390;fill-rule:evenodd;stroke:none"
   d="m 132.08398,90.004883 v -6.138184 l 22.42774,11.478028 v 6.287593 z"
   id="path187-6" />
		<path
   style="stroke-width:1.31753;stroke-miterlimit:10"
   d="m 132.08398,90.004883 v -6.138184 l 22.42774,11.478028 v 6.287593 z"
   id="path189-3" />
		<path
   style="fill:#ffffff;fill-rule:evenodd;stroke:none"
   d="m 131.85547,95.442871 v 6.138179 l 22.42969,-11.478511 v -6.287598 z"
   id="path191-7" />
		<path
   style="stroke-width:1.31753;stroke-miterlimit:10"
   d="m 131.85547,95.442871 v 6.138179 l 22.42969,-11.478511 v -6.287598 z"
   id="path193-9" />
		<path
   style="fill:#313390;fill-rule:evenodd;stroke:none"
   d="m 131.85352,171.80566 v -6.13867 l 22.42968,11.47852 v 6.28711 z"
   id="path195-7" />
		<path
   style="stroke-width:1.31753;stroke-miterlimit:10"
   d="m 131.85352,171.80566 v -6.13867 l 22.42968,11.47852 v 6.28711 z"
   id="path197-9" />
		<path
   style="fill:#313390;fill-rule:evenodd;stroke:none"
   d="m 131.96875,160.2002 v -6.13868 l 22.42773,11.47754 v 6.28809 z"
   id="path199-9" />
		<path
   style="stroke-width:1.31753;stroke-miterlimit:10"
   d="m 131.96875,160.2002 v -6.13868 l 22.42773,11.47754 v 6.28809 z"
   id="path201-2" />
		<path
   style="fill:#ffffff;fill-rule:evenodd;stroke:none"
   d="m 131.74414,165.6377 v 6.13769 l 22.42774,-11.47754 v -6.28808 z"
   id="path203-7" />
		<path
   style="stroke-width:1.31753;stroke-miterlimit:10"
   d="m 131.74414,165.6377 v 6.13769 l 22.42774,-11.47754 v -6.28808 z"
   id="path205-2" />
		<path
   style="fill:#313390;fill-rule:evenodd;stroke:none"
   d="m 132.01758,183.57129 v -6.13672 l 22.42871,11.47656 v 6.28907 z"
   id="path207-7" />
		<path
   style="stroke-width:1.31753;stroke-miterlimit:10"
   d="m 132.01758,183.57129 v -6.13672 l 22.42871,11.47656 v 6.28907 z"
   id="path209-7" />
		<path
   style="fill:#ffffff;fill-rule:evenodd;stroke:none"
   d="m 131.91211,177.18066 v 6.13672 l 22.42773,-11.47656 v -6.28906 z"
   id="path211-6" />
		<path
   style="stroke-width:1.31753;stroke-miterlimit:10"
   d="m 131.91211,177.18066 v 6.13672 l 22.42773,-11.47656 v -6.28906 z"
   id="path213-9" />
		<path
   style="fill:#313390;fill-rule:evenodd;stroke:none"
   d="m 131.9043,195.17871 v -6.13672 l 22.42871,11.47656 v 6.28711 z"
   id="path215-0" />
		<path
   style="stroke-width:1.31753;stroke-miterlimit:10"
   d="m 131.9043,195.17871 v -6.13672 l 22.42871,11.47656 v 6.28711 z"
   id="path217-3" />
		<path
   style="fill:#ffffff;fill-rule:evenodd;stroke:none"
   d="m 131.79297,189.01172 v 6.13574 l 22.42773,-11.47851 v -6.28711 z"
   id="path219-6" />
		<path
   style="stroke-width:1.31753;stroke-miterlimit:10"
   d="m 131.79297,189.01172 v 6.13574 l 22.42773,-11.47851 v -6.28711 z"
   id="path221-9" />
		<path
   style="fill:#ffffff;fill-rule:evenodd;stroke:none"
   d="m 131.96191,200.55566 v 6.13672 l 22.42774,-11.47754 v -6.28808 z"
   id="path223-2" />
		<path
   style="stroke-width:1.31753;stroke-miterlimit:10"
   d="m 131.96191,200.55566 v 6.13672 l 22.42774,-11.47754 v -6.28808 z"
   id="path225-8" />
		<path
   style="fill:#313390;fill-rule:evenodd;stroke:none"
   d="m 132,148.48633 v -6.13574 l 22.42773,11.47656 v 6.28711 z"
   id="path227-8" />
		<path
   style="stroke-width:1.31753;stroke-miterlimit:10"
   d="m 132,148.48633 v -6.13574 l 22.42773,11.47656 v 6.28711 z"
   id="path229-9" />
		<path
   style="fill:#ffffff;fill-rule:evenodd;stroke:none"
   d="m 131.77441,153.92676 v 6.13672 l 22.42676,-11.47852 v -6.28711 z"
   id="path231-6" />
		<path
   style="stroke-width:1.31753;stroke-miterlimit:10"
   d="m 131.77441,153.92676 v 6.13672 l 22.42676,-11.47852 v -6.28711 z"
   id="path233-5" />
		<path
   style="fill:#313390;fill-rule:evenodd;stroke:none"
   d="m 131.93848,55.001465 v -6.138672 l 22.42675,11.478516 v 6.287597 z"
   id="path235-9" />
		<path
   style="stroke-width:1.31753;stroke-miterlimit:10"
   d="m 131.93848,55.001465 v -6.138672 l 22.42675,11.478516 v 6.287597 z"
   id="path237-0" />
		<path
   style="fill:#313390;fill-rule:evenodd;stroke:none"
   d="m 132.05078,43.395019 v -6.138183 l 22.42969,11.478027 v 6.288086 z"
   id="path239-7" />
		<path
   style="stroke-width:1.31753;stroke-miterlimit:10"
   d="m 132.05078,43.395019 v -6.138183 l 22.42969,11.478027 v 6.288086 z"
   id="path241-1" />
		<path
   style="fill:#ffffff;fill-rule:evenodd;stroke:none"
   d="m 131.82617,48.833008 v 6.138183 l 22.42676,-11.478027 v -6.288086 z"
   id="path243-0" />
		<path
   style="stroke-width:1.31753;stroke-miterlimit:10"
   d="m 131.82617,48.833008 v 6.138183 l 22.42676,-11.478027 v -6.288086 z"
   id="path245-9" />
		<path
   style="fill:#313390;fill-rule:evenodd;stroke:none"
   d="m 132.09961,66.76709 v -6.136231 l 22.43066,11.478028 v 6.286132 z"
   id="path247-3" />
		<path
   style="stroke-width:1.31753;stroke-miterlimit:10"
   d="m 132.09961,66.76709 v -6.136231 l 22.43066,11.478028 v 6.286132 z"
   id="path249-7" />
		<path
   style="fill:#ffffff;fill-rule:evenodd;stroke:none"
   d="m 131.99414,60.37793 v 6.136719 l 22.42774,-11.478516 v -6.287598 z"
   id="path251-4" />
		<path
   style="stroke-width:1.31753;stroke-miterlimit:10"
   d="m 131.99414,60.37793 v 6.136719 l 22.42774,-11.478516 v -6.287598 z"
   id="path253-6" />
		<path
   style="fill:#313390;fill-rule:evenodd;stroke:none"
   d="m 131.98828,78.373535 v -6.136719 l 22.42774,11.476563 v 6.288086 z"
   id="path255-6" />
		<path
   style="stroke-width:1.31753;stroke-miterlimit:10"
   d="m 131.98828,78.373535 v -6.136719 l 22.42774,11.476563 v 6.288086 z"
   id="path257-0" />
		<path
   style="fill:#ffffff;fill-rule:evenodd;stroke:none"
   d="M 131.875,72.206543 V 78.34375 L 154.30469,66.865234 V 60.577149 Z"
   id="path259-0" />
		<path
   style="stroke-width:1.31753;stroke-miterlimit:10"
   d="M 131.875,72.206543 V 78.34375 L 154.30469,66.865234 V 60.577149 Z"
   id="path261-9" />
		<path
   style="fill:#ffffff;fill-rule:evenodd;stroke:none"
   d="m 132.04492,83.75 v 6.137207 l 22.42774,-11.477051 v -6.287598 z"
   id="path263-9" />
		<path
   style="stroke-width:1.31753;stroke-miterlimit:10"
   d="m 132.04492,83.75 v 6.137207 l 22.42774,-11.477051 v -6.287598 z"
   id="path265-1" />
		<path
   style="fill:#313390;fill-rule:evenodd;stroke:none"
   d="m 68.547363,11.509766 h -6.28955 l 11.764648,21.815429 h 6.445801 z"
   id="path267-0" />
		<path
   style="stroke-width:1.31753;stroke-miterlimit:10"
   d="m 68.547363,11.509766 h -6.28955 l 11.764648,21.815429 h 6.445801 z"
   id="path269-6" />
		<path
   style="fill:#313390;fill-rule:evenodd;stroke:none"
   d="m 56.651856,11.621582 h -6.29004 l 11.764161,21.81543 h 6.444824 z"
   id="path271-9" />
		<path
   style="stroke-width:1.31753;stroke-miterlimit:10"
   d="m 56.651856,11.621582 h -6.29004 l 11.764161,21.81543 h 6.444824 z"
   id="path273-1" />
		<path
   style="fill:#ffffff;fill-rule:evenodd;stroke:none"
   d="M 62.227051,11.401856 H 68.51709 L 56.75293,33.217285 h -6.444336 z"
   id="path275-0" />
		<path
   style="stroke-width:1.31753;stroke-miterlimit:10"
   d="M 62.227051,11.401856 H 68.51709 L 56.75293,33.217285 h -6.444336 z"
   id="path277-0" />
		<path
   style="fill:#313390;fill-rule:evenodd;stroke:none"
   d="m 80.608887,11.669434 h -6.291016 l 11.76416,21.815429 h 6.445313 z"
   id="path279-0" />
		<path
   style="stroke-width:1.31753;stroke-miterlimit:10"
   d="m 80.608887,11.669434 h -6.291016 l 11.76416,21.815429 h 6.445313 z"
   id="path281-7" />
		<path
   style="fill:#ffffff;fill-rule:evenodd;stroke:none"
   d="m 74.058594,11.566406 h 6.291015 l -11.76416,21.81543 h -6.445312 z"
   id="path283-8" />
		<path
   style="stroke-width:1.31753;stroke-miterlimit:10"
   d="m 74.058594,11.566406 h 6.291015 l -11.76416,21.81543 h -6.445312 z"
   id="path285-5" />
		<path
   style="fill:#313390;fill-rule:evenodd;stroke:none"
   d="m 116.45996,11.659668 h -6.29004 l 11.76465,21.81543 h 6.44434 z"
   id="path287-7" />
		<path
   style="stroke-width:1.31753;stroke-miterlimit:10"
   d="m 116.45996,11.659668 h -6.29004 l 11.76465,21.81543 h 6.44434 z"
   id="path289-2" />
		<path
   style="fill:#313390;fill-rule:evenodd;stroke:none"
   d="M 92.503906,11.558106 H 86.213867 L 97.978516,33.375488 H 104.4248 Z"
   id="path291-9" />
		<path
   style="stroke-width:1.31753;stroke-miterlimit:10"
   d="M 92.503906,11.558106 H 86.213867 L 97.978516,33.375488 H 104.4248 Z"
   id="path293-3" />
		<path
   style="fill:#ffffff;fill-rule:evenodd;stroke:none"
   d="m 86.183594,11.449707 h 6.289062 L 80.709961,33.265625 h -6.444824 z"
   id="path295-3" />
		<path
   style="stroke-width:1.31753;stroke-miterlimit:10"
   d="m 86.183594,11.449707 h 6.289062 L 80.709961,33.265625 h -6.444824 z"
   id="path297-4" />
		<path
   style="fill:#313390;fill-rule:evenodd;stroke:none"
   d="m 104.56445,11.770996 h -6.290036 l 11.764646,21.81543 h 6.44336 z"
   id="path299-2" />
		<path
   style="stroke-width:1.31753;stroke-miterlimit:10"
   d="m 104.56445,11.770996 h -6.290036 l 11.764646,21.81543 h 6.44336 z"
   id="path301-9" />
		<path
   style="fill:#ffffff;fill-rule:evenodd;stroke:none"
   d="m 98.015625,11.614746 h 6.291015 l -11.765624,21.81543 h -6.44336 z"
   id="path303-7" />
		<path
   style="stroke-width:1.31753;stroke-miterlimit:10"
   d="m 98.015625,11.614746 h 6.291015 l -11.765624,21.81543 h -6.44336 z"
   id="path305-4" />
		<path
   style="fill:#ffffff;fill-rule:evenodd;stroke:none"
   d="m 110.13867,11.549805 h 6.29102 l -11.76367,21.817383 h -6.445317 z"
   id="path307-9" />
		<path
   style="stroke-width:1.31753;stroke-miterlimit:10"
   d="m 110.13867,11.549805 h 6.29102 l -11.76367,21.817383 h -6.445317 z"
   id="path309-2" />
		<path
   style="fill:#313390;fill-rule:evenodd;stroke:none"
   d="m 128.48633,11.717773 h -6.29004 l 11.76465,21.81543 h 6.44336 z"
   id="path311-6" />
		<path
   style="stroke-width:1.31753;stroke-miterlimit:10"
   d="m 128.48633,11.717773 h -6.29004 l 11.76465,21.81543 h 6.44336 z"
   id="path313-4" />
		<path
   style="fill:#ffffff;fill-rule:evenodd;stroke:none"
   d="m 121.97266,11.714356 h 6.28906 l -11.76367,21.815918 h -6.44532 z"
   id="path315-4" />
		<path
   style="stroke-width:1.31753;stroke-miterlimit:10"
   d="m 121.97266,11.714356 h 6.28906 l -11.76367,21.815918 h -6.44532 z"
   id="path317-7" />
		<path
   style="fill:#313390;fill-rule:evenodd;stroke:none"
   d="M 44.647949,11.651367 H 38.35791 l 11.764648,21.81543 h 6.44336 z"
   id="path319-5" />
		<path
   style="stroke-width:1.31753;stroke-miterlimit:10"
   d="M 44.647949,11.651367 H 38.35791 l 11.764648,21.81543 h 6.44336 z"
   id="path321-8" />
		<path
   style="fill:#313390;fill-rule:evenodd;stroke:none"
   d="m 32.868164,11.43457 h -6.290039 l 11.764648,21.815918 h 6.444336 z"
   id="path323-0" />
		<path
   style="stroke-width:1.31753;stroke-miterlimit:10"
   d="m 32.868164,11.43457 h -6.290039 l 11.764648,21.815918 h 6.444336 z"
   id="path325-4" />
		<path
   style="fill:#ffffff;fill-rule:evenodd;stroke:none"
   d="m 50.223144,11.431152 h 6.29004 L 44.748535,33.24707 H 38.303711 L 50.223145,11.431152 Z"
   id="path327-4" />
		<path
   style="stroke-width:1.31753;stroke-miterlimit:10"
   d="m 50.223144,11.431152 h 6.29004 L 44.748535,33.24707 H 38.303711 L 50.223145,11.431152 Z"
   id="path329-6" />
		<path
   style="fill:#313390;fill-rule:evenodd;stroke:none"
   d="m 20.957031,11.43457 h -6.290039 l 11.76416,21.815918 h 6.444336 z"
   id="path331-8" />
		<path
   style="stroke-width:1.31753;stroke-miterlimit:10"
   d="m 20.957031,11.43457 h -6.290039 l 11.76416,21.815918 h 6.444336 z"
   id="path333-8" />
		<path
   style="fill:#ffffff;fill-rule:evenodd;stroke:none"
   d="m 38.34082,11.43457 h 6.290039 L 32.866211,33.250488 h -6.443359 z"
   id="path335-6" />
		<path
   style="stroke-width:1.31753;stroke-miterlimit:10"
   d="m 38.34082,11.43457 h 6.290039 L 32.866211,33.250488 h -6.443359 z"
   id="path337-9" />
		<path
   style="fill:#ffffff;fill-rule:evenodd;stroke:none"
   d="m 26.584961,11.43457 h 6.290527 L 21.112305,33.250488 h -6.445313 z"
   id="path339-7" />
		<path
   style="stroke-width:1.31753;stroke-miterlimit:10"
   d="m 26.584961,11.43457 h 6.290527 L 21.112305,33.250488 h -6.445313 z"
   id="path341-0" />
		<path
   style="fill:#313390;fill-rule:evenodd;stroke:none"
   d="m 140.38281,11.606445 h -6.29101 l 11.76562,21.816895 h 6.44336 z"
   id="path343-0" />
		<path
   style="stroke-width:1.31753;stroke-miterlimit:10"
   d="m 140.38281,11.606445 h -6.29101 l 11.76562,21.816895 h 6.44336 z"
   id="path345-8" />
		<path
   style="fill:#ffffff;fill-rule:evenodd;stroke:none"
   d="m 134.0625,11.498047 h 6.28906 l -11.76367,21.81543 h -6.44726 z"
   id="path347-9" />
		<path
   style="stroke-width:1.31753;stroke-miterlimit:10"
   d="m 134.0625,11.498047 h 6.28906 l -11.76367,21.81543 h -6.44726 z"
   id="path349-4" />
		<path
   style="fill:#ffffff;fill-rule:evenodd;stroke:none"
   d="m 145.89258,11.663086 h 6.29004 l -11.7627,21.81543 h -6.44531 z"
   id="path351-6" />
		<path
   style="stroke-width:1.31753;stroke-miterlimit:10"
   d="m 145.89258,11.663086 h 6.29004 l -11.7627,21.81543 h -6.44531 z"
   id="path353-3" />
		<path
   style="fill:#313390;fill-rule:evenodd;stroke:none"
   d="m 68.88916,209.93262 h -6.290527 l 11.763672,21.81543 h 6.445312 z"
   id="path355-9" />
		<path
   style="stroke-width:1.31753;stroke-miterlimit:10"
   d="m 68.88916,209.93262 h -6.290527 l 11.763672,21.81543 h 6.445312 z"
   id="path357-9" />
		<path
   style="fill:#313390;fill-rule:evenodd;stroke:none"
   d="m 56.993652,210.04395 h -6.291504 l 11.764649,21.8164 h 6.445312 z"
   id="path359-3" />
		<path
   style="stroke-width:1.31753;stroke-miterlimit:10"
   d="m 56.993652,210.04395 h -6.291504 l 11.764649,21.8164 h 6.445312 z"
   id="path361-0" />
		<path
   style="fill:#ffffff;fill-rule:evenodd;stroke:none"
   d="m 62.566894,209.8252 h 6.291993 l -11.76416,21.81445 h -6.44629 z"
   id="path363-0" />
		<path
   style="stroke-width:1.31753;stroke-miterlimit:10"
   d="m 62.566894,209.8252 h 6.291993 l -11.76416,21.81445 h -6.44629 z"
   id="path365-4" />
		<path
   style="fill:#313390;fill-rule:evenodd;stroke:none"
   d="m 80.94873,210.09277 h -6.28955 l 11.763672,21.81446 h 6.444336 z"
   id="path367-9" />
		<path
   style="stroke-width:1.31753;stroke-miterlimit:10"
   d="m 80.94873,210.09277 h -6.28955 l 11.763672,21.81446 h 6.444336 z"
   id="path369-0" />
		<path
   style="fill:#ffffff;fill-rule:evenodd;stroke:none"
   d="m 74.399902,209.98926 h 6.290039 l -11.76416,21.8164 h -6.444824 z"
   id="path371-6" />
		<path
   style="stroke-width:1.31753;stroke-miterlimit:10"
   d="m 74.399902,209.98926 h 6.290039 l -11.76416,21.8164 h -6.444824 z"
   id="path373-5" />
		<path
   style="fill:#313390;fill-rule:evenodd;stroke:none"
   d="m 116.80078,210.08203 h -6.29101 l 11.76562,21.81543 h 6.44531 z"
   id="path375-6" />
		<path
   style="stroke-width:1.31753;stroke-miterlimit:10"
   d="m 116.80078,210.08203 h -6.29101 l 11.76562,21.81543 h 6.44531 z"
   id="path377-1" />
		<path
   style="fill:#313390;fill-rule:evenodd;stroke:none"
   d="m 92.845703,209.98047 h -6.291015 l 11.763671,21.81641 h 6.446291 z"
   id="path379-4" />
		<path
   style="stroke-width:1.31753;stroke-miterlimit:10"
   d="m 92.845703,209.98047 h -6.291015 l 11.763671,21.81641 h 6.446291 z"
   id="path381-2" />
		<path
   style="fill:#ffffff;fill-rule:evenodd;stroke:none"
   d="M 86.523438,209.87305 H 92.81543 L 81.050781,231.68848 H 74.605957 Z"
   id="path383-4" />
		<path
   style="stroke-width:1.31753;stroke-miterlimit:10"
   d="M 86.523438,209.87305 H 92.81543 L 81.050781,231.68848 H 74.605957 Z"
   id="path385-0" />
		<path
   style="fill:#313390;fill-rule:evenodd;stroke:none"
   d="m 104.90625,210.19434 h -6.292969 l 11.765629,21.81543 h 6.44531 z"
   id="path387-9" />
		<path
   style="stroke-width:1.31753;stroke-miterlimit:10"
   d="m 104.90625,210.19434 h -6.292969 l 11.765629,21.81543 h 6.44531 z"
   id="path389-4" />
		<path
   style="fill:#ffffff;fill-rule:evenodd;stroke:none"
   d="m 98.355469,210.03809 h 6.291011 L 92.880859,231.85254 H 86.4375 Z"
   id="path391-5" />
		<path
   style="stroke-width:1.31753;stroke-miterlimit:10"
   d="m 98.355469,210.03809 h 6.291011 L 92.880859,231.85254 H 86.4375 Z"
   id="path393-3" />
		<path
   style="fill:#ffffff;fill-rule:evenodd;stroke:none"
   d="m 110.47949,209.97168 h 6.29004 l -11.76172,21.81836 h -6.446287 z"
   id="path395-7" />
		<path
   style="stroke-width:1.31753;stroke-miterlimit:10"
   d="m 110.47949,209.97168 h 6.29004 l -11.76172,21.81836 h -6.446287 z"
   id="path397-0" />
		<path
   style="fill:#313390;fill-rule:evenodd;stroke:none"
   d="m 128.65234,210.20801 h -6.29101 l 11.76562,21.8164 h 6.44336 z"
   id="path399-7" />
		<path
   style="stroke-width:1.31753;stroke-miterlimit:10"
   d="m 128.65234,210.20801 h -6.29101 l 11.76562,21.8164 h 6.44336 z"
   id="path401-5" />
		<path
   style="fill:#ffffff;fill-rule:evenodd;stroke:none"
   d="m 122.3125,210.1377 h 6.28906 l -11.76367,21.81543 h -6.44531 z"
   id="path403-1" />
		<path
   style="stroke-width:1.31753;stroke-miterlimit:10"
   d="m 122.3125,210.1377 h 6.28906 l -11.76367,21.81543 h -6.44531 z"
   id="path405-9" />
		<path
   style="fill:#313390;fill-rule:evenodd;stroke:none"
   d="M 44.988281,210.07422 H 38.69873 l 11.763672,21.81543 h 6.444336 z"
   id="path407-3" />
		<path
   style="stroke-width:1.31753;stroke-miterlimit:10"
   d="M 44.988281,210.07422 H 38.69873 l 11.763672,21.81543 h 6.444336 z"
   id="path409-3" />
		<path
   style="fill:#313390;fill-rule:evenodd;stroke:none"
   d="m 32.999023,210.11621 h -6.291015 l 11.764648,21.81641 h 6.444336 z"
   id="path411-9" />
		<path
   style="stroke-width:1.31753;stroke-miterlimit:10"
   d="m 32.999023,210.11621 h -6.291015 l 11.764648,21.81641 h 6.444336 z"
   id="path413-3" />
		<path
   style="fill:#ffffff;fill-rule:evenodd;stroke:none"
   d="m 50.563965,209.85449 h 6.289062 l -11.763183,21.81543 h -6.444336 z"
   id="path415-2" />
		<path
   style="stroke-width:1.31753;stroke-miterlimit:10"
   d="m 50.563965,209.85449 h 6.289062 l -11.763183,21.81543 h -6.444336 z"
   id="path417-0" />
		<path
   style="fill:#313390;fill-rule:evenodd;stroke:none"
   d="m 140.54785,210.09766 h -6.29004 l 11.7627,21.81738 h 6.44629 z"
   id="path419-3" />
		<path
   style="stroke-width:1.31753;stroke-miterlimit:10"
   d="m 140.54785,210.09766 h -6.29004 l 11.7627,21.81738 h 6.44629 z"
   id="path421-1" />
		<path
   style="fill:#ffffff;fill-rule:evenodd;stroke:none"
   d="m 134.22754,209.98926 h 6.29004 l -11.76367,21.8164 h -6.44727 z"
   id="path423-5" />
		<path
   style="stroke-width:1.31753;stroke-miterlimit:10"
   d="m 134.22754,209.98926 h 6.29004 l -11.76367,21.8164 h -6.44727 z"
   id="path425-8" />
		<path
   style="fill:#ffffff;fill-rule:evenodd;stroke:none"
   d="m 146.05859,210.15332 h 6.28907 l -11.76368,21.81641 h -6.44433 z"
   id="path427-9" />
		<path
   style="stroke-width:1.31753;stroke-miterlimit:10"
   d="m 146.05859,210.15332 h 6.28907 l -11.76368,21.81641 h -6.44433 z"
   id="path429-3" />
		<path
   style="fill:#ffffff;fill-rule:evenodd;stroke:none"
   d="M 38.572754,209.89551 H 44.86377 L 33.099121,231.71387 H 26.655273 Z"
   id="path431-0" />
		<path
   style="stroke-width:1.31753;stroke-miterlimit:10"
   d="M 38.572754,209.89551 H 44.86377 L 33.099121,231.71387 H 26.655273 Z"
   id="path433-7" />
		<path
   style="fill:#313390;fill-rule:evenodd;stroke:none"
   d="m 20.994629,210.14746 h -6.291016 l 11.764649,21.81543 h 6.444824 z"
   id="path435-1" />
		<path
   style="stroke-width:1.31753;stroke-miterlimit:10"
   d="m 20.994629,210.14746 h -6.291016 l 11.764649,21.81543 h 6.444824 z"
   id="path437-7" />
		<path
   style="fill:#ffffff;fill-rule:evenodd;stroke:none"
   d="m 26.568848,209.92578 h 6.291015 l -11.76416,21.81738 h -6.446289 z"
   id="path439-2" />
		<path
   style="stroke-width:1.31753;stroke-miterlimit:10"
   d="m 26.568848,209.92578 h 6.291015 l -11.76416,21.81738 h -6.446289 z"
   id="path441-5" />
		<path
   style="stroke:#000000;stroke-width:0.500454;stroke-linecap:butt;stroke-linejoin:miter"
   d="m 166.83008,235.54492 c 0,3.77442 -3.08594,6.87012 -6.8711,6.87012 H 7.1108398 C 3.3359375,242.41504 0.25,239.31934 0.25,235.54492 V 7.1196289 C 0.25,3.340332 3.3359375,0.25 7.1108398,0.25 H 159.95898 c 3.78516,0 6.8711,3.090332 6.8711,6.8696289 z"
   id="path443-5" />
	</g>
</svg>
